<svg width="25" height="26" viewBox="0 0 25 26" fill="none" xmlns="http://www.w3.org/2000/svg">
<path d="M15.0557 13.8182L18.084 10.8246C18.4596 10.4545 18.6462 10.2688 18.7458 10.0692C18.9375 9.6903 18.9375 9.24441 18.7458 8.86421C18.6462 8.66464 18.4596 8.48022 18.0852 8.11013C17.7108 7.74003 17.523 7.55562 17.3224 7.45709C17.1331 7.36388 16.9244 7.31536 16.7129 7.31536C16.5014 7.31536 16.2928 7.36388 16.1034 7.45709C15.9015 7.55562 15.7137 7.74003 15.3393 8.11013L12.311 11.105M15.0557 13.8182L4.54989 24.2049C4.1755 24.575 3.98767 24.7594 3.78579 24.8579C3.40246 25.0474 2.95141 25.0474 2.5668 24.8579C2.36491 24.7594 2.17836 24.575 1.80397 24.2049C1.42959 23.8348 1.24304 23.6491 1.14337 23.4508C1.04908 23.2636 1 23.0574 1 22.8483C1 22.6392 1.04908 22.4329 1.14337 22.2458C1.24304 22.0462 1.42959 21.8605 1.80397 21.4904L12.311 11.105M15.0557 13.8182L12.311 11.105M22.0834 1L21.9428 1.37767C21.7562 1.87156 21.6642 2.11913 21.4828 2.29976C21.2988 2.48038 21.0484 2.57259 20.5488 2.75448L20.1667 2.89469L20.5488 3.03363C21.0484 3.21678 21.2988 3.30899 21.4815 3.48836C21.6642 3.67025 21.7562 3.91782 21.9415 4.4117L22.0834 4.78937L22.2239 4.4117C22.4105 3.91782 22.5025 3.67025 22.6839 3.48962C22.8679 3.30899 23.1183 3.21678 23.6179 3.03489L24 2.89469L23.6179 2.75574C23.1183 2.57259 22.8679 2.48038 22.6852 2.30102C22.5025 2.11913 22.4105 1.87156 22.2252 1.37767L22.0834 1ZM22.0834 13.6312L21.9428 14.0089C21.7562 14.5028 21.6642 14.7504 21.4828 14.931C21.2988 15.1116 21.0484 15.2038 20.5488 15.3857L20.1667 15.5259L20.5488 15.6649C21.0484 15.8493 21.2988 15.9402 21.4815 16.1196C21.6642 16.3015 21.7562 16.5491 21.9415 17.0429L22.0834 17.4206L22.2239 17.0429C22.4105 16.5491 22.5025 16.3015 22.6839 16.1209C22.8679 15.9402 23.1183 15.848 23.6179 15.6661L24 15.5259L23.6179 15.387C23.1183 15.2026 22.8679 15.1116 22.6852 14.9323C22.5025 14.7504 22.4105 14.5028 22.2252 14.0089L22.0834 13.6312ZM10.5835 1L10.4429 1.37767C10.2564 1.87156 10.1644 2.11913 9.98294 2.29976C9.79894 2.48038 9.5485 2.57259 9.04889 2.75448L8.66684 2.89469L9.04889 3.03363C9.5485 3.21678 9.79894 3.30899 9.98166 3.48836C10.1644 3.67025 10.2577 3.91782 10.4417 4.4117L10.5835 4.78937L10.724 4.4117C10.9106 3.91782 11.0026 3.67025 11.184 3.48962C11.368 3.30899 11.6185 3.21678 12.1181 3.03489L12.5001 2.89469L12.1181 2.75574C11.6185 2.57259 11.368 2.48038 11.1853 2.30102C11.0026 2.11913 10.9093 1.87156 10.7253 1.37767L10.5835 1Z" stroke="#0E1F2F" stroke-width="1.5" stroke-linecap="round" stroke-linejoin="round"/>
</svg>
