<svg width="15" height="20" viewBox="0 0 15 20" fill="none" xmlns="http://www.w3.org/2000/svg">
<path d="M1.51758 4.56353C1.51758 3.44353 1.51758 2.88353 1.73558 2.45553C1.92732 2.07922 2.23327 1.77327 2.60958 1.58153C3.03758 1.36353 3.59758 1.36353 4.71758 1.36353H10.3176C11.4376 1.36353 11.9976 1.36353 12.4256 1.58153C12.8019 1.77327 13.1078 2.07922 13.2996 2.45553C13.5176 2.88353 13.5176 3.44353 13.5176 4.56353V17.8685C13.5176 18.3545 13.5176 18.5975 13.4166 18.7305C13.3729 18.7884 13.3172 18.836 13.2534 18.8702C13.1895 18.9044 13.1189 18.9243 13.0466 18.9285C12.8796 18.9385 12.6776 18.8035 12.2736 18.5345L7.51758 15.3635L2.76158 18.5335C2.35758 18.8035 2.15558 18.9385 1.98758 18.9285C1.91541 18.9242 1.84505 18.9042 1.78135 18.87C1.71765 18.8358 1.66211 18.7882 1.61858 18.7305C1.51758 18.5975 1.51758 18.3545 1.51758 17.8685V4.56353Z" stroke="#F9FAFB" stroke-width="1.5" stroke-linecap="round" stroke-linejoin="round"/>
</svg>
