<svg width="22" height="20" viewBox="0 0 22 20" fill="none" xmlns="http://www.w3.org/2000/svg">
<path d="M11.113 2.13843C10.6158 2.13843 10.1388 2.33597 9.78721 2.6876C9.43558 3.03923 9.23804 3.51615 9.23804 4.01343C9.23804 4.51071 9.43558 4.98762 9.78721 5.33925C10.1388 5.69088 10.6158 5.88843 11.113 5.88843C11.6103 5.88843 12.0872 5.69088 12.4389 5.33925C12.7905 4.98762 12.988 4.51071 12.988 4.01343C12.988 3.51615 12.7905 3.03923 12.4389 2.6876C12.0872 2.33597 11.6103 2.13843 11.113 2.13843ZM7.73804 4.01343C7.73804 3.11832 8.09362 2.25988 8.72655 1.62694C9.35949 0.994007 10.2179 0.638428 11.113 0.638428C12.0081 0.638428 12.8666 0.994007 13.4995 1.62694C14.1325 2.25988 14.488 3.11832 14.488 4.01343C14.488 4.90853 14.1325 5.76698 13.4995 6.39991C12.8666 7.03285 12.0081 7.38843 11.113 7.38843C10.2179 7.38843 9.35949 7.03285 8.72655 6.39991C8.09362 5.76698 7.73804 4.90853 7.73804 4.01343ZM3.61304 4.38843C3.21521 4.38843 2.83368 4.54646 2.55238 4.82777C2.27107 5.10907 2.11304 5.4906 2.11304 5.88843C2.11304 6.28625 2.27107 6.66778 2.55238 6.94909C2.83368 7.23039 3.21521 7.38843 3.61304 7.38843C4.01086 7.38843 4.39239 7.23039 4.6737 6.94909C4.955 6.66778 5.11304 6.28625 5.11304 5.88843C5.11304 5.4906 4.955 5.10907 4.6737 4.82777C4.39239 4.54646 4.01086 4.38843 3.61304 4.38843ZM0.613037 5.88843C0.613037 5.09278 0.929108 4.32972 1.49172 3.76711C2.05433 3.2045 2.81739 2.88843 3.61304 2.88843C4.40869 2.88843 5.17175 3.2045 5.73436 3.76711C6.29697 4.32972 6.61304 5.09278 6.61304 5.88843C6.61304 6.68408 6.29697 7.44714 5.73436 8.00975C5.17175 8.57236 4.40869 8.88843 3.61304 8.88843C2.81739 8.88843 2.05433 8.57236 1.49172 8.00975C0.929108 7.44714 0.613037 6.68408 0.613037 5.88843ZM17.113 5.88843C17.113 5.4906 17.2711 5.10907 17.5524 4.82777C17.8337 4.54646 18.2152 4.38843 18.613 4.38843C19.0109 4.38843 19.3924 4.54646 19.6737 4.82777C19.955 5.10907 20.113 5.4906 20.113 5.88843C20.113 6.28625 19.955 6.66778 19.6737 6.94909C19.3924 7.23039 19.0109 7.38843 18.613 7.38843C18.2152 7.38843 17.8337 7.23039 17.5524 6.94909C17.2711 6.66778 17.113 6.28625 17.113 5.88843ZM18.613 2.88843C17.8174 2.88843 17.0543 3.2045 16.4917 3.76711C15.9291 4.32972 15.613 5.09278 15.613 5.88843C15.613 6.68408 15.9291 7.44714 16.4917 8.00975C17.0543 8.57236 17.8174 8.88843 18.613 8.88843C19.4087 8.88843 20.1717 8.57236 20.7344 8.00975C21.297 7.44714 21.613 6.68408 21.613 5.88843C21.613 5.09278 21.297 4.32972 20.7344 3.76711C20.1717 3.2045 19.4087 2.88843 18.613 2.88843ZM5.48804 10.7634C5.48804 10.5964 5.50129 10.4337 5.52779 10.2752L2.00279 11.2194C1.52253 11.3483 1.11312 11.6626 0.864592 12.0932C0.616065 12.5239 0.54878 13.0357 0.677537 13.5159L1.35704 16.0509C1.52105 16.6634 1.81266 17.2343 2.21274 17.7263C2.61282 18.2182 3.11234 18.62 3.67856 18.9054C4.24479 19.1908 4.86493 19.3532 5.49834 19.3822C6.13175 19.4112 6.76413 19.3059 7.35404 19.0734C6.94861 18.7095 6.5982 18.2886 6.31379 17.8239C5.56377 17.9797 4.78258 17.8426 4.13036 17.4409C3.47815 17.0391 3.00433 16.4031 2.80604 15.6632L2.12654 13.1282C2.11371 13.0806 2.11039 13.031 2.11676 12.9821C2.12312 12.9333 2.13906 12.8861 2.16364 12.8434C2.18823 12.8007 2.22099 12.7633 2.26005 12.7333C2.29911 12.7033 2.34371 12.6812 2.39129 12.6684L5.48804 11.8389V10.7634ZM15.3558 19.2332C15.1914 19.1894 15.0297 19.1363 14.8713 19.0742C15.277 18.7103 15.6276 18.2894 15.9123 17.8247C16.6622 17.98 17.4431 17.8426 18.095 17.4408C18.7469 17.0389 19.2204 16.4029 19.4185 15.6632L20.0973 13.1274C20.123 13.0315 20.1095 12.9292 20.0599 12.8432C20.0102 12.7571 19.9285 12.6943 19.8325 12.6684L16.738 11.8389V10.7634C16.738 10.5974 16.7248 10.4349 16.6983 10.2759L20.221 11.2194C20.7013 11.3483 21.1107 11.6626 21.3592 12.0932C21.6078 12.5239 21.675 13.0357 21.5463 13.5159L20.8668 16.0509C20.5579 17.2037 19.8038 18.1866 18.7703 18.7834C17.7368 19.3802 16.5086 19.542 15.3558 19.2332ZM8.48804 8.88843C7.99076 8.88843 7.51384 9.08597 7.16221 9.4376C6.81058 9.78923 6.61304 10.2661 6.61304 10.7634V14.8884C6.61304 16.0819 7.08714 17.2265 7.93106 18.0704C8.77497 18.9143 9.91956 19.3884 11.113 19.3884C12.3065 19.3884 13.4511 18.9143 14.295 18.0704C15.1389 17.2265 15.613 16.0819 15.613 14.8884V10.7634C15.613 10.2661 15.4155 9.78923 15.0639 9.4376C14.7122 9.08597 14.2353 8.88843 13.738 8.88843H8.48804ZM8.11304 10.7634C8.11304 10.664 8.15255 10.5686 8.22287 10.4983C8.2932 10.4279 8.38858 10.3884 8.48804 10.3884H13.738C13.8375 10.3884 13.9329 10.4279 14.0032 10.4983C14.0735 10.5686 14.113 10.664 14.113 10.7634V14.8884C14.113 15.6841 13.797 16.4471 13.2344 17.0097C12.6717 17.5724 11.9087 17.8884 11.113 17.8884C10.3174 17.8884 9.55433 17.5724 8.99172 17.0097C8.42911 16.4471 8.11304 15.6841 8.11304 14.8884V10.7634Z" fill="#F9FAFB"/>
</svg>
